<svg preserveAspectRatio="none" width="100%" height="100%" overflow="visible" style="display: block;" viewBox="0 0 22 22" fill="none" xmlns="http://www.w3.org/2000/svg">
<g id="Review sites">
<path id="Bubble" d="M11 0.5C4.92487 0.5 0 4.92487 0 10.5C0 13.2261 1.17835 15.6996 3.09904 17.5163L1.10982 20.7757C0.735078 21.3898 1.22019 22.1657 1.93254 21.9748L7.42297 20.5031C8.55283 20.8248 9.7529 21 11 21C17.0751 21 22 16.0751 22 10.5C22 4.92487 17.0751 0.5 11 0.5Z" fill="#00803E"/>
<path id="Star" d="M11 5.25L12.6741 8.64203L16.4187 9.18647L13.7093 11.8268L14.3488 15.5563L11 13.795L7.65122 15.5563L8.29065 11.8268L5.58131 9.18647L9.32594 8.64203L11 5.25Z" fill="#FFFFFF"/>
</g>
</svg>
